<svg version="1.1" id="Layer_1" xmlns="http://www.w3.org/2000/svg" xmlns:xlink="http://www.w3.org/1999/xlink" x="0px" y="0px"
	 width="100%" viewBox="0 0 192 192" enable-background="new 0 0 192 192" xml:space="preserve">
<path fill="#FEFDFD" opacity="1.000000" stroke="none" 
	d="
M108.000000,193.000000 
	C72.023125,193.000000 36.546246,193.000000 1.034685,193.000000 
	C1.034685,129.064819 1.034685,65.129631 1.034685,1.097215 
	C64.893372,1.097215 128.786942,1.097215 192.840256,1.097215 
	C192.840256,64.999680 192.840256,128.999802 192.840256,193.000000 
	C164.796585,193.000000 136.648300,193.000000 108.000000,193.000000 
M167.992935,28.139812 
	C140.335800,28.123274 112.678650,28.106735 84.177460,27.769503 
	C81.779907,27.873022 79.382347,27.976542 76.064987,27.899406 
	C68.647217,28.542606 61.010162,28.279175 53.855389,30.009701 
	C36.707634,34.157230 26.288561,49.518692 27.449167,67.409676 
	C28.499620,83.602638 40.562546,96.487801 57.212803,98.717636 
	C61.667267,99.314186 66.269424,98.807877 71.305603,98.807877 
	C62.785625,111.429993 54.365696,123.903877 45.274094,137.372833 
	C52.774769,137.372833 58.605667,137.696365 64.368263,137.210205 
	C66.606842,137.021347 69.473228,135.543732 70.721550,133.734207 
	C80.344391,119.785431 89.964073,105.811569 98.881493,91.410049 
	C102.570206,85.452843 105.311630,78.633575 107.102493,71.842094 
	C109.707138,61.964535 106.954208,52.418003 103.819252,43.344742 
	C109.748009,43.344742 115.676765,43.344742 122.137550,43.344742 
	C122.137550,64.625717 122.137550,85.201607 122.137550,105.878159 
	C127.745811,105.878159 132.791916,105.878159 138.212494,105.878159 
	C138.212494,103.636185 138.212463,101.829239 138.212479,100.022301 
	C138.212585,83.364235 138.208878,66.706177 138.214737,50.048115 
	C138.217087,43.361156 138.226685,43.361492 145.131805,43.358440 
	C148.629990,43.356892 152.146423,43.559429 155.617493,43.251465 
	C157.026794,43.126427 158.619141,42.161724 159.640656,41.106911 
	C162.856842,37.785900 165.841812,34.240971 169.627716,30.755857 
	C170.063293,30.021564 170.498886,29.287270 170.934464,28.552977 
	C170.259048,28.463314 169.583633,28.373652 167.992935,28.139812 
z"/>
<path fill="#E10922" opacity="1.000000" stroke="none" 
	d="
M102.695625,43.339752 
	C106.954208,52.418003 109.707138,61.964535 107.102493,71.842094 
	C105.311630,78.633575 102.570206,85.452843 98.881493,91.410049 
	C89.964073,105.811569 80.344391,119.785431 70.721550,133.734207 
	C69.473228,135.543732 66.606842,137.021347 64.368263,137.210205 
	C58.605667,137.696365 52.774769,137.372833 45.274094,137.372833 
	C54.365696,123.903877 62.785625,111.429993 71.305603,98.807877 
	C66.269424,98.807877 61.667267,99.314186 57.212803,98.717636 
	C40.562546,96.487801 28.499620,83.602638 27.449167,67.409676 
	C26.288561,49.518692 36.707634,34.157230 53.855389,30.009701 
	C61.010162,28.279175 68.647217,28.542606 76.733170,28.280243 
	C79.456421,29.097151 81.511490,29.533226 83.851776,30.210890 
	C90.323204,34.748238 96.509415,39.043995 102.695625,43.339752 
M46.853127,63.679661 
	C47.024715,73.287048 51.663879,80.288414 59.634281,82.968819 
	C68.687347,86.013306 78.232323,83.603340 83.587662,76.920921 
	C88.357437,70.969170 89.122604,61.689350 85.363472,55.384090 
	C80.793396,47.718601 71.868393,43.818279 63.155636,45.679020 
	C53.943005,47.646519 48.181755,53.715141 46.853127,63.679661 
z"/>
<path fill="#0A0909" opacity="1.000000" stroke="none" 
	d="
M103.257439,43.342247 
	C96.509415,39.043995 90.323204,34.748238 84.059845,29.987453 
	C84.328972,29.045019 84.675240,28.567606 85.021507,28.090195 
	C112.678650,28.106735 140.335800,28.123274 168.380585,28.521080 
	C168.817581,29.529140 168.866928,30.155933 168.916290,30.782722 
	C165.841812,34.240971 162.856842,37.785900 159.640656,41.106911 
	C158.619141,42.161724 157.026794,43.126427 155.617493,43.251465 
	C152.146423,43.559429 148.629990,43.356892 145.131805,43.358440 
	C138.226685,43.361492 138.217087,43.361156 138.214737,50.048115 
	C138.208878,66.706177 138.212585,83.364235 138.212479,100.022301 
	C138.212463,101.829239 138.212494,103.636185 138.212494,105.878159 
	C132.791916,105.878159 127.745811,105.878159 122.137550,105.878159 
	C122.137550,85.201607 122.137550,64.625717 122.137550,43.344742 
	C115.676765,43.344742 109.748009,43.344742 103.257439,43.342247 
z"/>
<path fill="#4A4344" opacity="1.000000" stroke="none" 
	d="
M84.599487,27.929848 
	C84.675240,28.567606 84.328972,29.045019 83.774628,29.745865 
	C81.511490,29.533226 79.456421,29.097151 77.193069,28.370567 
	C79.382347,27.976542 81.779907,27.873022 84.599487,27.929848 
z"/>
<path fill="#4A4344" opacity="1.000000" stroke="none" 
	d="
M169.272003,30.769291 
	C168.866928,30.155933 168.817581,29.529140 168.838226,28.593170 
	C169.583633,28.373652 170.259048,28.463314 170.934464,28.552977 
	C170.498886,29.287270 170.063293,30.021564 169.272003,30.769291 
z"/>
<path fill="#FEF6F7" opacity="1.000000" stroke="none" 
	d="
M46.875797,63.241600 
	C48.181755,53.715141 53.943005,47.646519 63.155636,45.679020 
	C71.868393,43.818279 80.793396,47.718601 85.363472,55.384090 
	C89.122604,61.689350 88.357437,70.969170 83.587662,76.920921 
	C78.232323,83.603340 68.687347,86.013306 59.634281,82.968819 
	C51.663879,80.288414 47.024715,73.287048 46.875797,63.241600 
z"/>
</svg>