<svg version="1.1" id="Layer_1" xmlns="http://www.w3.org/2000/svg" xmlns:xlink="http://www.w3.org/1999/xlink" x="0px" y="0px"
	 width="100%" viewBox="0 0 192 192" enable-background="new 0 0 192 192" xml:space="preserve">
<path fill="#FEFDFD" opacity="1.000000" stroke="none" 
	d="
M108.000000,193.000000 
	C72.023125,193.000000 36.546246,193.000000 1.034685,193.000000 
	C1.034685,129.064819 1.034685,65.129631 1.034685,1.097215 
	C64.893372,1.097215 128.786942,1.097215 192.840256,1.097215 
	C192.840256,64.999680 192.840256,128.999802 192.840256,193.000000 
	C164.796585,193.000000 136.648300,193.000000 108.000000,193.000000 
M167.992935,28.139803 
	C140.335785,28.123266 112.678642,28.106728 84.177444,27.769497 
	C81.779892,27.873016 79.382339,27.976534 76.064987,27.899397 
	C68.647255,28.542587 61.010246,28.279161 53.855495,30.009657 
	C36.707718,34.157143 26.288635,49.518505 27.449144,67.409576 
	C28.499504,83.602486 40.562420,96.487724 57.212708,98.717628 
	C61.667187,99.314186 66.269371,98.807869 71.305489,98.807869 
	C62.785633,111.429977 54.365780,123.903923 45.274323,137.372849 
	C52.774719,137.372849 58.605614,137.696365 64.368210,137.210220 
	C66.606804,137.021362 69.473206,135.543762 70.721527,133.734253 
	C80.344360,119.785469 89.964066,105.811615 98.881493,91.410088 
	C102.570213,85.452866 105.311638,78.633591 107.102509,71.842117 
	C109.707191,61.964542 106.954208,52.418015 103.819252,43.344749 
	C109.748009,43.344749 115.676765,43.344749 122.137550,43.344749 
	C122.137550,64.625732 122.137550,85.201622 122.137550,105.878174 
	C127.745811,105.878174 132.791916,105.878174 138.212509,105.878174 
	C138.212509,103.636200 138.212479,101.829254 138.212494,100.022316 
	C138.212601,83.364258 138.208878,66.706200 138.214737,50.048138 
	C138.217087,43.361164 138.226685,43.361500 145.131821,43.358444 
	C148.630005,43.356899 152.146439,43.559441 155.617508,43.251472 
	C157.026794,43.126434 158.619141,42.161709 159.640640,41.106911 
	C162.856827,37.785892 165.841812,34.240982 169.627731,30.755863 
	C170.063324,30.021559 170.498901,29.287254 170.934494,28.552952 
	C170.259064,28.463295 169.583649,28.373640 167.992935,28.139803 
z"/>
<path fill="#E10922" opacity="1.000000" stroke="none" 
	d="
M102.695625,43.339760 
	C106.954208,52.418015 109.707191,61.964542 107.102509,71.842117 
	C105.311638,78.633591 102.570213,85.452866 98.881493,91.410088 
	C89.964066,105.811615 80.344360,119.785469 70.721527,133.734253 
	C69.473206,135.543762 66.606804,137.021362 64.368210,137.210220 
	C58.605614,137.696365 52.774719,137.372849 45.274323,137.372849 
	C54.365780,123.903923 62.785633,111.429977 71.305489,98.807869 
	C66.269371,98.807869 61.667187,99.314186 57.212708,98.717628 
	C40.562420,96.487724 28.499504,83.602486 27.449144,67.409576 
	C26.288635,49.518505 36.707718,34.157143 53.855495,30.009657 
	C61.010246,28.279161 68.647255,28.542587 76.733170,28.280235 
	C79.456421,29.097149 81.511490,29.533224 83.851768,30.210892 
	C90.323196,34.748241 96.509407,39.043999 102.695625,43.339760 
M46.853127,63.679661 
	C47.024715,73.287041 51.663902,80.288445 59.634296,82.968826 
	C68.687393,86.013313 78.232292,83.603348 83.587677,76.920914 
	C88.357513,70.969093 89.122650,61.689461 85.363464,55.384090 
	C80.793404,47.718609 71.868385,43.818283 63.155632,45.679024 
	C53.943027,47.646515 48.181763,53.715153 46.853127,63.679661 
z"/>
<path fill="#0A0909" opacity="1.000000" stroke="none" 
	d="
M103.257439,43.342255 
	C96.509407,39.043999 90.323196,34.748241 84.059845,29.987461 
	C84.328972,29.045027 84.675232,28.567610 85.021492,28.090191 
	C112.678642,28.106728 140.335785,28.123266 168.380585,28.521076 
	C168.817596,29.529144 168.866943,30.155939 168.916290,30.782734 
	C165.841812,34.240982 162.856827,37.785892 159.640640,41.106911 
	C158.619141,42.161709 157.026794,43.126434 155.617508,43.251472 
	C152.146439,43.559441 148.630005,43.356899 145.131821,43.358444 
	C138.226685,43.361500 138.217087,43.361164 138.214737,50.048138 
	C138.208878,66.706200 138.212601,83.364258 138.212494,100.022316 
	C138.212479,101.829254 138.212509,103.636200 138.212509,105.878174 
	C132.791916,105.878174 127.745811,105.878174 122.137550,105.878174 
	C122.137550,85.201622 122.137550,64.625732 122.137550,43.344749 
	C115.676765,43.344749 109.748009,43.344749 103.257439,43.342255 
z"/>
<path fill="#4A4344" opacity="1.000000" stroke="none" 
	d="
M84.599472,27.929844 
	C84.675232,28.567610 84.328972,29.045027 83.774628,29.745872 
	C81.511490,29.533224 79.456421,29.097149 77.193069,28.370564 
	C79.382339,27.976534 81.779892,27.873016 84.599472,27.929844 
z"/>
<path fill="#4A4344" opacity="1.000000" stroke="none" 
	d="
M169.272003,30.769299 
	C168.866943,30.155939 168.817596,29.529144 168.838226,28.593166 
	C169.583649,28.373640 170.259064,28.463295 170.934494,28.552952 
	C170.498901,29.287254 170.063324,30.021559 169.272003,30.769299 
z"/>
<path fill="#FEF6F7" opacity="1.000000" stroke="none" 
	d="
M46.875797,63.241600 
	C48.181763,53.715153 53.943027,47.646515 63.155632,45.679024 
	C71.868385,43.818283 80.793404,47.718609 85.363464,55.384090 
	C89.122650,61.689461 88.357513,70.969093 83.587677,76.920914 
	C78.232292,83.603348 68.687393,86.013313 59.634296,82.968826 
	C51.663902,80.288445 47.024715,73.287041 46.875797,63.241600 
z"/>
</svg>