<svg version="1.1" id="Layer_1" xmlns="http://www.w3.org/2000/svg" xmlns:xlink="http://www.w3.org/1999/xlink" x="0px" y="0px"
	 width="100%" viewBox="0 0 512 512" enable-background="new 0 0 512 512" xml:space="preserve">
<path fill="#000000" opacity="1.000000" stroke="none" 
	d="
M338.000000,513.000000 
	C225.360703,513.000000 113.221397,513.000000 1.041047,513.000000 
	C1.041047,342.402344 1.041047,171.804672 1.041047,1.103501 
	C171.555969,1.103501 342.112030,1.103501 512.834045,1.103501 
	C512.834045,171.666534 512.834045,342.333252 512.834045,513.000000 
	C454.804657,513.000000 396.652313,513.000000 338.000000,513.000000 
M257.265350,143.616425 
	C273.708923,143.616425 290.152496,143.616425 307.019165,143.616425 
	C307.019165,195.336594 307.019165,246.728439 307.019165,298.327820 
	C320.198059,298.327820 332.951080,298.327820 346.219971,298.327820 
	C346.219971,246.723450 346.219971,195.344498 346.219971,143.866150 
	C347.703827,143.738617 348.681915,143.582428 349.660156,143.581329 
	C363.818207,143.565338 377.976929,143.493179 392.133789,143.624023 
	C395.679504,143.656784 397.502625,142.638367 399.306976,139.178940 
	C404.060822,130.064560 410.721741,122.290779 418.946716,115.974876 
	C422.728516,113.070839 426.505676,110.160736 430.284912,107.253380 
	C430.098267,106.846886 429.911591,106.440384 429.724915,106.033890 
	C428.643066,106.033890 427.561188,106.037941 426.479370,106.033310 
	C348.036804,105.697533 269.594299,105.356880 191.151581,105.058876 
	C189.776550,105.053658 188.399567,105.560837 186.203491,105.648102 
	C185.428482,105.433197 184.657349,105.046158 183.877914,105.028694 
	C167.044128,104.651657 150.469437,105.497528 134.096848,110.548943 
	C119.256973,115.127464 106.003349,122.001846 95.118477,132.903702 
	C80.762299,147.282272 72.316330,164.553818 70.614594,185.128571 
	C69.028534,204.304840 71.692795,222.196838 81.432961,239.234177 
	C98.204933,268.571472 132.718842,284.699982 166.768448,279.289978 
	C171.481277,278.541168 176.214462,277.920288 181.763382,277.121368 
	C159.049057,310.015686 136.866119,342.140472 114.189034,374.980865 
	C133.615982,374.980865 151.922302,375.020508 170.227371,374.889069 
	C171.411026,374.880585 172.997177,373.834534 173.702423,372.798798 
	C185.649551,355.252716 197.490982,337.634674 209.346954,320.026581 
	C221.301270,302.272430 233.354507,284.583588 245.163422,266.733185 
	C256.406433,249.738159 266.423950,232.193970 269.757599,211.586044 
	C271.918274,198.229233 271.815063,184.829361 268.334839,171.982788 
	C265.690948,162.223434 260.359283,153.192230 257.265350,143.616425 
M221.399704,325.938782 
	C221.399704,336.853149 221.399704,347.767517 221.399704,358.903503 
	C226.634232,358.903503 231.453796,359.243988 236.206100,358.823914 
	C243.394485,358.188477 248.172791,353.118439 246.832687,347.459747 
	C246.213898,344.846802 244.034042,342.603485 242.561966,340.192596 
	C244.358536,337.482971 245.890289,334.220245 245.503326,331.203674 
	C245.024872,327.474060 241.798767,325.679474 237.842102,325.631073 
	C232.551865,325.566315 227.263443,325.352142 221.399704,325.938782 
M308.624390,346.902496 
	C307.100708,350.828278 305.577026,354.754089 303.974792,358.882263 
	C306.741699,358.882263 309.209717,358.882263 310.910980,358.882263 
	C312.823334,355.941345 313.920807,352.364746 316.228729,351.212311 
	C318.758209,349.949280 322.415985,350.777557 325.556885,351.020203 
	C326.388763,351.084473 327.818390,352.361481 327.803406,353.056396 
	C327.650299,360.154877 332.152588,359.413971 337.172729,358.660645 
	C333.172760,347.297607 329.236877,336.116638 325.284546,324.888916 
	C323.017792,324.888916 321.009644,324.735046 319.040802,324.946808 
	C317.864990,325.073273 316.007019,325.497742 315.725708,326.258148 
	C313.294250,332.829987 311.151642,339.508636 308.624390,346.902496 
M379.099304,339.740662 
	C379.396179,343.363861 379.362152,347.054016 380.077728,350.592560 
	C380.886261,354.591003 383.443329,357.956451 387.453339,358.761566 
	C391.689056,359.611969 396.313721,359.857513 399.426910,355.472687 
	C403.930847,349.129028 403.125214,342.203369 402.183441,335.070465 
	C401.121765,327.029633 396.448242,324.508820 390.510345,324.338165 
	C384.397583,324.162506 380.840912,328.059143 379.900452,334.938507 
	C379.721252,336.249390 379.416840,337.543182 379.099304,339.740662 
M258.716309,324.997498 
	C257.128174,325.069641 255.540054,325.141785 253.984772,325.212433 
	C253.984772,336.657959 253.984772,347.728271 253.984772,358.756134 
	C260.697479,358.756134 267.133728,358.756134 273.638672,358.756134 
	C273.638672,356.721954 273.638672,354.948578 273.638672,352.738220 
	C269.383606,352.738220 265.310242,352.738220 261.361115,352.738220 
	C261.361115,349.557556 261.361115,346.823425 261.361115,343.709106 
	C265.296875,343.709106 268.882965,343.709106 272.714386,343.709106 
	C272.521149,341.730377 272.368744,340.169556 272.191925,338.359009 
	C268.263977,338.359009 264.828278,338.359009 261.249207,338.359009 
	C261.249207,335.813934 261.249207,333.574982 261.249207,330.851318 
	C265.536224,330.851318 269.605347,330.851318 273.887054,330.851318 
	C273.777802,328.615662 273.693695,326.894196 273.600983,324.997498 
	C268.627136,324.997498 264.145386,324.997498 258.716309,324.997498 
M293.820862,358.136322 
	C293.820862,349.209473 293.820862,340.282593 293.820862,330.813843 
	C297.367615,330.813843 300.419128,330.813843 303.363281,330.813843 
	C303.363281,328.653503 303.363281,327.044403 303.363281,325.361572 
	C294.453125,325.361572 285.774750,325.361572 277.190613,325.361572 
	C277.190613,327.346863 277.190613,328.966644 277.190613,331.057068 
	C280.418488,331.057068 283.482452,331.057068 286.941467,331.057068 
	C286.941467,340.587402 286.941467,349.652283 286.941467,358.859314 
	C289.301788,358.859314 291.259247,358.859314 293.820862,358.136322 
M362.512115,338.676453 
	C362.512115,345.317627 362.512115,351.958801 362.512115,358.799957 
	C364.928528,358.799957 367.011902,358.799957 369.188080,358.799957 
	C369.188080,347.485504 369.188080,336.387878 369.188080,325.312439 
	C363.001404,324.776123 357.640656,327.797577 353.105316,334.278473 
	C354.012909,335.382935 354.937958,336.508667 355.969635,337.764130 
	C358.056732,336.363373 360.052612,335.023834 362.543365,333.352203 
	C362.543365,335.211121 362.543365,336.467163 362.512115,338.676453 
z"/>
<path fill="#E1001A" opacity="1.000000" stroke="none" 
	d="
M256.223511,143.837036 
	C260.359283,153.192230 265.690948,162.223434 268.334839,171.982788 
	C271.815063,184.829361 271.918274,198.229233 269.757599,211.586044 
	C266.423950,232.193970 256.406433,249.738159 245.163422,266.733185 
	C233.354507,284.583588 221.301270,302.272430 209.346954,320.026581 
	C197.490982,337.634674 185.649551,355.252716 173.702423,372.798798 
	C172.997177,373.834534 171.411026,374.880585 170.227371,374.889069 
	C151.922302,375.020508 133.615982,374.980865 114.189034,374.980865 
	C136.866119,342.140472 159.049057,310.015686 181.763382,277.121368 
	C176.214462,277.920288 171.481277,278.541168 166.768448,279.289978 
	C132.718842,284.699982 98.204933,268.571472 81.432961,239.234177 
	C71.692795,222.196838 69.028534,204.304840 70.614594,185.128571 
	C72.316330,164.553818 80.762299,147.282272 95.118477,132.903702 
	C106.003349,122.001846 119.256973,115.127464 134.096848,110.548943 
	C150.469437,105.497528 167.044128,104.651657 183.877914,105.028694 
	C184.657349,105.046158 185.428482,105.433197 187.010986,105.821716 
	C198.041977,108.662903 208.598999,110.456017 218.412277,114.199043 
	C233.880753,120.099091 246.565903,130.197311 256.223511,143.837036 
M127.879166,167.351028 
	C123.338844,172.373688 121.085503,178.411087 119.212471,184.859314 
	C113.459915,204.663422 123.026001,227.199997 142.008545,237.652710 
	C162.561646,248.970245 186.190765,246.918930 204.201187,231.922989 
	C220.963150,217.966522 225.767334,192.622620 214.680969,173.483719 
	C207.014496,160.248734 195.769562,152.325958 180.862900,149.324371 
	C159.979782,145.119370 142.354553,150.698639 127.879166,167.351028 
z"/>
<path fill="#FDFDFD" opacity="1.000000" stroke="none" 
	d="
M256.744446,143.726730 
	C246.565903,130.197311 233.880753,120.099091 218.412277,114.199043 
	C208.598999,110.456017 198.041977,108.662903 187.420990,105.912140 
	C188.399567,105.560837 189.776550,105.053658 191.151581,105.058876 
	C269.594299,105.356880 348.036804,105.697533 426.479370,106.033310 
	C427.561188,106.037941 428.643066,106.033890 429.724915,106.033890 
	C429.911591,106.440384 430.098267,106.846886 430.284912,107.253380 
	C426.505676,110.160736 422.728516,113.070839 418.946716,115.974876 
	C410.721741,122.290779 404.060822,130.064560 399.306976,139.178940 
	C397.502625,142.638367 395.679504,143.656784 392.133789,143.624023 
	C377.976929,143.493179 363.818207,143.565338 349.660156,143.581329 
	C348.681915,143.582428 347.703827,143.738617 346.219971,143.866150 
	C346.219971,195.344498 346.219971,246.723450 346.219971,298.327820 
	C332.951080,298.327820 320.198059,298.327820 307.019165,298.327820 
	C307.019165,246.728439 307.019165,195.336594 307.019165,143.616425 
	C290.152496,143.616425 273.708923,143.616425 256.744446,143.726730 
z"/>
<path fill="#F7F7F7" opacity="1.000000" stroke="none" 
	d="
M221.686981,325.570465 
	C227.263443,325.352142 232.551865,325.566315 237.842102,325.631073 
	C241.798767,325.679474 245.024872,327.474060 245.503326,331.203674 
	C245.890289,334.220245 244.358536,337.482971 242.561966,340.192596 
	C244.034042,342.603485 246.213898,344.846802 246.832687,347.459747 
	C248.172791,353.118439 243.394485,358.188477 236.206100,358.823914 
	C231.453796,359.243988 226.634232,358.903503 221.399704,358.903503 
	C221.399704,347.767517 221.399704,336.853149 221.686981,325.570465 
M228.472382,351.915558 
	C231.849854,352.073517 235.227310,352.231506 238.497116,352.384460 
	C239.407028,344.273834 237.160141,342.804047 228.341110,344.729034 
	C228.341110,346.801025 228.341110,348.927612 228.472382,351.915558 
M228.325851,334.458832 
	C228.362625,336.530090 227.785156,339.428436 231.257111,338.563049 
	C233.889572,337.906921 236.273163,336.252380 238.767532,335.042145 
	C237.764923,333.715302 236.512558,331.143890 235.804733,331.285919 
	C233.291489,331.790314 229.337418,328.453247 228.325851,334.458832 
z"/>
<path fill="#F7F7F7" opacity="1.000000" stroke="none" 
	d="
M308.773682,346.528992 
	C311.151642,339.508636 313.294250,332.829987 315.725708,326.258148 
	C316.007019,325.497742 317.864990,325.073273 319.040802,324.946808 
	C321.009644,324.735046 323.017792,324.888916 325.284546,324.888916 
	C329.236877,336.116638 333.172760,347.297607 337.172729,358.660645 
	C332.152588,359.413971 327.650299,360.154877 327.803406,353.056396 
	C327.818390,352.361481 326.388763,351.084473 325.556885,351.020203 
	C322.415985,350.777557 318.758209,349.949280 316.228729,351.212311 
	C313.920807,352.364746 312.823334,355.941345 310.910980,358.882263 
	C309.209717,358.882263 306.741699,358.882263 303.974792,358.882263 
	C305.577026,354.754089 307.100708,350.828278 308.773682,346.528992 
M319.544952,334.955139 
	C318.535889,337.911926 317.526825,340.868713 316.414062,344.129364 
	C319.986237,344.129364 322.387451,344.129364 325.115234,344.129364 
	C323.625183,339.559235 322.251953,335.347412 320.878754,331.135559 
	C320.654327,331.193817 320.429901,331.252075 320.205505,331.310333 
	C320.081818,332.281097 319.958130,333.251862 319.544952,334.955139 
z"/>
<path fill="#F7F7F7" opacity="1.000000" stroke="none" 
	d="
M379.134766,339.292755 
	C379.416840,337.543182 379.721252,336.249390 379.900452,334.938507 
	C380.840912,328.059143 384.397583,324.162506 390.510345,324.338165 
	C396.448242,324.508820 401.121765,327.029633 402.183441,335.070465 
	C403.125214,342.203369 403.930847,349.129028 399.426910,355.472687 
	C396.313721,359.857513 391.689056,359.611969 387.453339,358.761566 
	C383.443329,357.956451 380.886261,354.591003 380.077728,350.592560 
	C379.362152,347.054016 379.396179,343.363861 379.134766,339.292755 
M395.799957,346.784882 
	C395.424255,342.370758 395.315277,337.906586 394.501801,333.574677 
	C394.273468,332.358582 392.053467,330.932861 390.596283,330.739502 
	C389.648926,330.613800 387.535583,332.496613 387.480286,333.559479 
	C387.185272,339.228271 386.795410,345.006073 387.601654,350.577820 
	C388.130707,354.233978 391.999756,354.446808 394.125458,351.265686 
	C394.841614,350.194000 395.113251,348.825256 395.799957,346.784882 
z"/>
<path fill="#F7F7F7" opacity="1.000000" stroke="none" 
	d="
M259.190002,324.997498 
	C264.145386,324.997498 268.627136,324.997498 273.600983,324.997498 
	C273.693695,326.894196 273.777802,328.615662 273.887054,330.851318 
	C269.605347,330.851318 265.536224,330.851318 261.249207,330.851318 
	C261.249207,333.574982 261.249207,335.813934 261.249207,338.359009 
	C264.828278,338.359009 268.263977,338.359009 272.191925,338.359009 
	C272.368744,340.169556 272.521149,341.730377 272.714386,343.709106 
	C268.882965,343.709106 265.296875,343.709106 261.361115,343.709106 
	C261.361115,346.823425 261.361115,349.557556 261.361115,352.738220 
	C265.310242,352.738220 269.383606,352.738220 273.638672,352.738220 
	C273.638672,354.948578 273.638672,356.721954 273.638672,358.756134 
	C267.133728,358.756134 260.697479,358.756134 253.984772,358.756134 
	C253.984772,347.728271 253.984772,336.657959 253.984772,325.212433 
	C255.540054,325.141785 257.128174,325.069641 259.190002,324.997498 
z"/>
<path fill="#F7F7F7" opacity="1.000000" stroke="none" 
	d="
M293.518799,358.497803 
	C291.259247,358.859314 289.301788,358.859314 286.941467,358.859314 
	C286.941467,349.652283 286.941467,340.587402 286.941467,331.057068 
	C283.482452,331.057068 280.418488,331.057068 277.190613,331.057068 
	C277.190613,328.966644 277.190613,327.346863 277.190613,325.361572 
	C285.774750,325.361572 294.453125,325.361572 303.363281,325.361572 
	C303.363281,327.044403 303.363281,328.653503 303.363281,330.813843 
	C300.419128,330.813843 297.367615,330.813843 293.820862,330.813843 
	C293.820862,340.282593 293.820862,349.209473 293.518799,358.497803 
z"/>
<path fill="#F7F7F7" opacity="1.000000" stroke="none" 
	d="
M362.527740,338.199829 
	C362.543365,336.467163 362.543365,335.211121 362.543365,333.352203 
	C360.052612,335.023834 358.056732,336.363373 355.969635,337.764130 
	C354.937958,336.508667 354.012909,335.382935 353.105316,334.278473 
	C357.640656,327.797577 363.001404,324.776123 369.188080,325.312439 
	C369.188080,336.387878 369.188080,347.485504 369.188080,358.799957 
	C367.011902,358.799957 364.928528,358.799957 362.512115,358.799957 
	C362.512115,351.958801 362.512115,345.317627 362.527740,338.199829 
z"/>
<path fill="#010000" opacity="1.000000" stroke="none" 
	d="
M128.005325,167.013367 
	C142.354553,150.698639 159.979782,145.119370 180.862900,149.324371 
	C195.769562,152.325958 207.014496,160.248734 214.680969,173.483719 
	C225.767334,192.622620 220.963150,217.966522 204.201187,231.922989 
	C186.190765,246.918930 162.561646,248.970245 142.008545,237.652710 
	C123.026001,227.199997 113.459915,204.663422 119.212471,184.859314 
	C121.085503,178.411087 123.338844,172.373688 128.005325,167.013367 
z"/>
<path fill="#010000" opacity="1.000000" stroke="none" 
	d="
M228.406738,351.484894 
	C228.341110,348.927612 228.341110,346.801025 228.341110,344.729034 
	C237.160141,342.804047 239.407028,344.273834 238.497116,352.384460 
	C235.227310,352.231506 231.849854,352.073517 228.406738,351.484894 
z"/>
<path fill="#010000" opacity="1.000000" stroke="none" 
	d="
M228.326294,334.028381 
	C229.337418,328.453247 233.291489,331.790314 235.804733,331.285919 
	C236.512558,331.143890 237.764923,333.715302 238.767517,335.042145 
	C236.273163,336.252380 233.889572,337.906921 231.257111,338.563049 
	C227.785156,339.428436 228.362625,336.530090 228.326294,334.028381 
z"/>
<path fill="#010000" opacity="1.000000" stroke="none" 
	d="
M319.689697,334.588867 
	C319.958130,333.251862 320.081818,332.281097 320.205505,331.310333 
	C320.429901,331.252075 320.654327,331.193817 320.878754,331.135559 
	C322.251953,335.347412 323.625183,339.559235 325.115234,344.129364 
	C322.387451,344.129364 319.986237,344.129364 316.414062,344.129364 
	C317.526825,340.868713 318.535889,337.911926 319.689697,334.588867 
z"/>
<path fill="#010000" opacity="1.000000" stroke="none" 
	d="
M395.694000,347.188568 
	C395.113251,348.825256 394.841614,350.194000 394.125458,351.265686 
	C391.999756,354.446808 388.130707,354.233978 387.601654,350.577820 
	C386.795410,345.006073 387.185272,339.228271 387.480286,333.559479 
	C387.535583,332.496613 389.648926,330.613800 390.596283,330.739502 
	C392.053467,330.932861 394.273468,332.358582 394.501801,333.574677 
	C395.315277,337.906586 395.424255,342.370758 395.694000,347.188568 
z"/>
</svg>