<svg version="1.1" id="Layer_1" xmlns="http://www.w3.org/2000/svg" xmlns:xlink="http://www.w3.org/1999/xlink" x="0px" y="0px"
	 width="100%" viewBox="0 0 512 512" enable-background="new 0 0 512 512" xml:space="preserve">
<path fill="#010000" opacity="1.000000" stroke="none" 
	d="
M513.000000,200.000000 
	C513.000000,304.641235 513.000000,408.782471 513.000000,512.961853 
	C342.400421,512.961853 171.800827,512.961853 1.100622,512.961853 
	C1.100622,342.442139 1.100622,171.884171 1.100622,1.163107 
	C171.666534,1.163107 342.333252,1.163107 513.000000,1.163107 
	C513.000000,67.199127 513.000000,133.349564 513.000000,200.000000 
M271.762268,100.622665 
	C294.502045,100.622665 317.241821,100.622665 340.330688,100.622665 
	C340.330688,172.476822 340.330688,243.714874 340.330688,315.254150 
	C358.406982,315.254150 376.128479,315.254150 394.372864,315.254150 
	C394.372864,243.621857 394.372864,172.252670 394.372864,100.570358 
	C413.536682,100.570358 432.196686,100.102791 450.815552,100.775223 
	C459.615692,101.093048 466.424347,100.116730 469.124390,90.547478 
	C469.253540,90.089790 469.675629,89.720230 469.932312,89.292244 
	C478.872894,74.386726 491.749146,63.422283 505.685883,53.503517 
	C507.020142,52.553940 508.130035,51.289108 509.344086,50.170635 
	C507.214966,49.034603 505.628815,49.039360 504.042694,49.033909 
	C463.231476,48.893642 422.420166,48.772427 381.609070,48.605751 
	C336.802277,48.422760 291.995789,48.157753 247.188919,48.007652 
	C224.372375,47.931221 201.555252,48.028412 178.076721,48.179264 
	C174.456482,48.059341 170.825851,47.702908 167.217819,47.861259 
	C153.099152,48.480927 138.853439,48.283592 124.902130,50.194538 
	C98.087044,53.867481 73.918335,64.289879 53.836994,82.852150 
	C31.295925,103.688087 19.268110,129.847626 16.576075,160.233734 
	C13.300913,197.201813 22.996840,230.334381 49.694386,256.625641 
	C82.566353,288.997406 122.190620,297.260956 166.379532,285.239105 
	C167.110107,285.040344 167.912567,285.105804 169.817673,284.962463 
	C138.696960,330.571930 108.111145,375.397491 76.857376,421.201965 
	C80.060120,421.201965 81.849281,421.201935 83.638443,421.201935 
	C105.298073,421.201904 126.963768,420.919281 148.613403,421.384308 
	C154.649750,421.513947 157.820404,419.322174 160.946869,414.597809 
	C185.489517,377.511749 210.502472,340.735168 234.864822,303.532104 
	C248.535660,282.655792 261.957214,261.551880 274.215057,239.830414 
	C290.613281,210.771973 294.650604,179.273727 288.987396,146.484589 
	C286.139923,129.998123 279.521027,115.003136 271.762268,100.622665 
M150.715454,438.998596 
	C149.306641,439.103668 147.897827,439.208740 146.691986,439.298706 
	C146.691986,455.132721 146.691986,470.484467 146.691986,485.432983 
	C154.528870,485.432983 162.023010,485.902527 169.426025,485.283020 
	C175.245636,484.796021 179.847275,481.473938 180.905853,475.228302 
	C181.936264,469.148773 180.684464,463.787750 173.403137,461.343445 
	C179.534348,458.194458 180.872345,453.425171 179.718063,447.943665 
	C178.608551,442.674744 174.523804,440.327728 169.557175,439.866669 
	C163.620834,439.315521 157.637939,439.265625 150.715454,438.998596 
M270.628632,485.519562 
	C271.718658,482.052307 272.808716,478.585022 273.966125,474.903534 
	C275.804230,474.903534 277.450897,474.904663 279.097565,474.903381 
	C290.631958,474.894379 290.631958,474.894196 294.535065,485.790314 
	C297.901001,485.790314 301.309174,485.790314 305.078583,485.790314 
	C299.521088,470.041931 294.073883,454.606171 288.590271,439.067139 
	C284.458740,439.067139 280.496338,439.067139 276.229431,439.067139 
	C270.786774,454.567352 265.336060,470.090515 259.781036,485.910645 
	C263.555023,485.910645 266.704681,485.910645 270.628632,485.519562 
M393.255127,475.591583 
	C395.773590,466.558624 395.852844,457.504944 392.858154,448.611115 
	C390.515045,441.652344 385.053802,438.046021 378.086182,438.229156 
	C370.809357,438.420441 366.070251,441.933502 363.883209,449.228912 
	C361.345764,457.693237 361.272644,466.282104 363.719788,474.782288 
	C365.955566,482.548553 370.554474,486.295105 377.808685,486.688782 
	C385.073212,487.083069 389.698151,483.945587 393.255127,475.591583 
M204.497803,486.015656 
	C208.910309,486.015656 213.322815,486.015656 217.470200,486.015656 
	C217.470200,482.841888 217.470200,480.436249 217.470200,477.564728 
	C211.721054,477.564728 206.326675,477.564728 201.102295,477.564728 
	C201.102295,473.352509 201.102295,469.628235 201.102295,465.512360 
	C206.386108,465.512360 211.296356,465.512360 216.289703,465.512360 
	C216.289703,462.699615 216.289703,460.295929 216.289703,457.481873 
	C211.083679,457.481873 206.162552,457.481873 201.047165,457.481873 
	C201.047165,453.860138 201.047165,450.661499 201.047165,446.982574 
	C206.755005,446.982574 212.158157,446.982574 217.534058,446.982574 
	C217.534058,444.092712 217.534058,441.696381 217.534058,439.222351 
	C208.501785,439.222351 199.765717,439.222351 190.899811,439.222351 
	C190.899811,454.872650 190.899811,470.297638 190.899811,486.015656 
	C195.226334,486.015656 199.366913,486.015656 204.497803,486.015656 
M258.580078,442.594299 
	C257.900574,441.399689 257.241364,439.177948 256.538605,439.164062 
	C245.447968,438.945343 234.351761,439.010437 223.241791,439.010437 
	C223.241791,442.000854 223.241791,444.428619 223.241791,447.388885 
	C227.507187,447.388885 231.566864,447.388885 235.973602,447.388885 
	C235.973602,460.503143 235.973602,473.086212 235.973602,485.738953 
	C239.412399,485.738953 242.476196,485.738953 245.919586,485.738953 
	C245.919586,472.892151 245.919586,460.308472 245.919586,447.241455 
	C249.244354,447.241455 252.214920,447.042786 255.146469,447.295868 
	C258.239929,447.562958 258.930969,446.101410 258.580078,442.594299 
M339.460388,466.503601 
	C339.460388,472.934021 339.460388,479.364471 339.460388,485.885986 
	C343.013245,485.885986 345.984100,485.885986 349.112427,485.885986 
	C349.112427,470.243073 349.112427,454.732422 349.112427,439.232361 
	C337.907074,436.972443 333.745514,446.940826 325.877563,450.894653 
	C327.919373,453.315277 329.385681,455.053619 331.001495,456.969177 
	C333.875854,454.694336 336.491486,452.624268 339.460449,450.274536 
	C339.460449,455.887512 339.460449,460.696838 339.460388,466.503601 
z"/>
<path fill="#E1001A" opacity="1.000000" stroke="none" 
	d="
M270.819244,100.842041 
	C279.521027,115.003136 286.139923,129.998123 288.987396,146.484589 
	C294.650604,179.273727 290.613281,210.771973 274.215057,239.830414 
	C261.957214,261.551880 248.535660,282.655792 234.864822,303.532104 
	C210.502472,340.735168 185.489517,377.511749 160.946869,414.597809 
	C157.820404,419.322174 154.649750,421.513947 148.613403,421.384308 
	C126.963768,420.919281 105.298073,421.201904 83.638443,421.201935 
	C81.849281,421.201935 80.060120,421.201965 76.857376,421.201965 
	C108.111145,375.397491 138.696960,330.571930 169.817673,284.962463 
	C167.912567,285.105804 167.110107,285.040344 166.379532,285.239105 
	C122.190620,297.260956 82.566353,288.997406 49.694386,256.625641 
	C22.996840,230.334381 13.300913,197.201813 16.576075,160.233734 
	C19.268110,129.847626 31.295925,103.688087 53.836994,82.852150 
	C73.918335,64.289879 98.087044,53.867481 124.902130,50.194538 
	C138.853439,48.283592 153.099152,48.480927 167.217819,47.861259 
	C170.825851,47.702908 174.456482,48.059341 178.580536,48.466599 
	C180.507889,49.126476 181.912094,49.616413 183.357758,49.854374 
	C219.003601,55.721741 249.302124,70.745834 270.819244,100.842041 
M157.098221,240.722626 
	C159.081024,240.488693 161.064148,240.257614 163.046570,240.020416 
	C207.126953,234.746750 234.543854,188.575485 217.491180,148.334122 
	C204.110397,116.757736 167.583282,99.898094 132.569382,109.137199 
	C84.674255,121.775261 65.454926,177.005661 96.096535,214.912079 
	C111.404480,233.849380 132.117966,241.513504 157.098221,240.722626 
z"/>
<path fill="#FDFDFD" opacity="1.000000" stroke="none" 
	d="
M271.290771,100.732353 
	C249.302124,70.745834 219.003601,55.721741 183.357758,49.854374 
	C181.912094,49.616413 180.507889,49.126476 178.911377,48.400528 
	C201.555252,48.028412 224.372375,47.931221 247.188919,48.007652 
	C291.995789,48.157753 336.802277,48.422760 381.609070,48.605751 
	C422.420166,48.772427 463.231476,48.893642 504.042694,49.033909 
	C505.628815,49.039360 507.214966,49.034603 509.344086,50.170635 
	C508.130035,51.289108 507.020142,52.553940 505.685883,53.503517 
	C491.749146,63.422283 478.872894,74.386726 469.932312,89.292244 
	C469.675629,89.720230 469.253540,90.089790 469.124390,90.547478 
	C466.424347,100.116730 459.615692,101.093048 450.815552,100.775223 
	C432.196686,100.102791 413.536682,100.570358 394.372864,100.570358 
	C394.372864,172.252670 394.372864,243.621857 394.372864,315.254150 
	C376.128479,315.254150 358.406982,315.254150 340.330688,315.254150 
	C340.330688,243.714874 340.330688,172.476822 340.330688,100.622665 
	C317.241821,100.622665 294.502045,100.622665 271.290771,100.732353 
z"/>
<path fill="#F7F7F7" opacity="1.000000" stroke="none" 
	d="
M151.195343,438.998596 
	C157.637939,439.265625 163.620834,439.315521 169.557175,439.866669 
	C174.523804,440.327728 178.608551,442.674744 179.718063,447.943665 
	C180.872345,453.425171 179.534348,458.194458 173.403137,461.343445 
	C180.684464,463.787750 181.936264,469.148773 180.905853,475.228302 
	C179.847275,481.473938 175.245636,484.796021 169.426025,485.283020 
	C162.023010,485.902527 154.528870,485.432983 146.691986,485.432983 
	C146.691986,470.484467 146.691986,455.132721 146.691986,439.298706 
	C147.897827,439.208740 149.306641,439.103668 151.195343,438.998596 
M161.278656,465.540710 
	C159.691544,465.540710 158.104446,465.540710 156.576477,465.540710 
	C156.576477,470.018433 156.576477,473.756744 156.576477,478.137085 
	C160.312973,477.770081 163.928131,478.025208 167.019241,476.873627 
	C168.764832,476.223328 170.706375,473.209961 170.620514,471.350586 
	C170.535767,469.515656 168.229980,467.506958 166.463882,466.133484 
	C165.465012,465.356689 163.591354,465.704803 161.278656,465.540710 
M156.266266,449.774231 
	C156.266266,452.346893 156.266266,454.919556 156.266266,457.891083 
	C161.417343,457.130310 166.761017,459.548096 169.344666,454.078644 
	C169.989014,452.714600 168.639755,448.917969 167.360931,448.422485 
	C163.851578,447.062714 159.789963,445.240936 156.266266,449.774231 
z"/>
<path fill="#F8F8F8" opacity="1.000000" stroke="none" 
	d="
M270.241486,485.715088 
	C266.704681,485.910645 263.555023,485.910645 259.781036,485.910645 
	C265.336060,470.090515 270.786774,454.567352 276.229431,439.067139 
	C280.496338,439.067139 284.458740,439.067139 288.590271,439.067139 
	C294.073883,454.606171 299.521088,470.041931 305.078583,485.790314 
	C301.309174,485.790314 297.901001,485.790314 294.535065,485.790314 
	C290.631958,474.894196 290.631958,474.894379 279.097565,474.903381 
	C277.450897,474.904663 275.804230,474.903534 273.966125,474.903534 
	C272.808716,478.585022 271.718658,482.052307 270.241486,485.715088 
M286.090851,458.446991 
	C284.965393,454.808655 283.839905,451.170319 282.411346,446.552216 
	C280.294922,453.686615 278.489868,459.771393 276.592285,466.168152 
	C280.822418,466.168152 284.383606,466.168152 288.489380,466.168152 
	C287.686035,463.591003 287.007660,461.414856 286.090851,458.446991 
z"/>
<path fill="#F9F9F9" opacity="1.000000" stroke="none" 
	d="
M393.149170,475.972778 
	C389.698151,483.945587 385.073212,487.083069 377.808685,486.688782 
	C370.554474,486.295105 365.955566,482.548553 363.719788,474.782288 
	C361.272644,466.282104 361.345764,457.693237 363.883209,449.228912 
	C366.070251,441.933502 370.809357,438.420441 378.086182,438.229156 
	C385.053802,438.046021 390.515045,441.652344 392.858154,448.611115 
	C395.852844,457.504944 395.773590,466.558624 393.149170,475.972778 
M371.996826,462.502991 
	C372.366913,466.295410 372.232971,470.239471 373.310089,473.819153 
	C373.888000,475.739899 376.492065,478.195099 378.283661,478.280762 
	C380.031311,478.364380 383.377441,475.835999 383.481598,474.283844 
	C384.008759,466.428711 383.969086,458.501556 383.471924,450.641144 
	C383.375336,449.113678 380.274506,446.540466 378.723694,446.655914 
	C376.816254,446.797913 374.124115,448.922394 373.480499,450.781677 
	C372.317200,454.142426 372.421814,457.942078 371.996826,462.502991 
z"/>
<path fill="#F7F7F7" opacity="1.000000" stroke="none" 
	d="
M204.002655,486.015656 
	C199.366913,486.015656 195.226334,486.015656 190.899811,486.015656 
	C190.899811,470.297638 190.899811,454.872650 190.899811,439.222351 
	C199.765717,439.222351 208.501785,439.222351 217.534058,439.222351 
	C217.534058,441.696381 217.534058,444.092712 217.534058,446.982574 
	C212.158157,446.982574 206.755005,446.982574 201.047165,446.982574 
	C201.047165,450.661499 201.047165,453.860138 201.047165,457.481873 
	C206.162552,457.481873 211.083679,457.481873 216.289703,457.481873 
	C216.289703,460.295929 216.289703,462.699615 216.289703,465.512360 
	C211.296356,465.512360 206.386108,465.512360 201.102295,465.512360 
	C201.102295,469.628235 201.102295,473.352509 201.102295,477.564728 
	C206.326675,477.564728 211.721054,477.564728 217.470200,477.564728 
	C217.470200,480.436249 217.470200,482.841888 217.470200,486.015656 
	C213.322815,486.015656 208.910309,486.015656 204.002655,486.015656 
z"/>
<path fill="#FAFAFA" opacity="1.000000" stroke="none" 
	d="
M258.580261,443.040009 
	C258.930969,446.101410 258.239929,447.562958 255.146469,447.295868 
	C252.214920,447.042786 249.244354,447.241455 245.919586,447.241455 
	C245.919586,460.308472 245.919586,472.892151 245.919586,485.738953 
	C242.476196,485.738953 239.412399,485.738953 235.973602,485.738953 
	C235.973602,473.086212 235.973602,460.503143 235.973602,447.388885 
	C231.566864,447.388885 227.507187,447.388885 223.241791,447.388885 
	C223.241791,444.428619 223.241791,442.000854 223.241791,439.010437 
	C234.351761,439.010437 245.447968,438.945343 256.538605,439.164062 
	C257.241364,439.177948 257.900574,441.399689 258.580261,443.040009 
z"/>
<path fill="#F6F6F6" opacity="1.000000" stroke="none" 
	d="
M339.460419,466.004883 
	C339.460449,460.696838 339.460449,455.887512 339.460449,450.274536 
	C336.491486,452.624268 333.875854,454.694336 331.001495,456.969177 
	C329.385681,455.053619 327.919373,453.315277 325.877563,450.894653 
	C333.745514,446.940826 337.907074,436.972443 349.112427,439.232361 
	C349.112427,454.732422 349.112427,470.243073 349.112427,485.885986 
	C345.984100,485.885986 343.013245,485.885986 339.460388,485.885986 
	C339.460388,479.364471 339.460388,472.934021 339.460419,466.004883 
z"/>
<path fill="#010000" opacity="1.000000" stroke="none" 
	d="
M156.638367,240.740234 
	C132.117966,241.513504 111.404480,233.849380 96.096535,214.912079 
	C65.454926,177.005661 84.674255,121.775261 132.569382,109.137199 
	C167.583282,99.898094 204.110397,116.757736 217.491180,148.334122 
	C234.543854,188.575485 207.126953,234.746750 163.046570,240.020416 
	C161.064148,240.257614 159.081024,240.488693 156.638367,240.740234 
z"/>
<path fill="#0E0E0E" opacity="1.000000" stroke="none" 
	d="
M161.695190,465.543457 
	C163.591354,465.704803 165.465012,465.356689 166.463882,466.133484 
	C168.229980,467.506958 170.535767,469.515656 170.620514,471.350586 
	C170.706375,473.209961 168.764832,476.223328 167.019241,476.873627 
	C163.928131,478.025208 160.312973,477.770081 156.576477,478.137085 
	C156.576477,473.756744 156.576477,470.018433 156.576477,465.540710 
	C158.104446,465.540710 159.691544,465.540710 161.695190,465.543457 
z"/>
<path fill="#141414" opacity="1.000000" stroke="none" 
	d="
M156.273895,449.331055 
	C159.789963,445.240936 163.851578,447.062714 167.360931,448.422485 
	C168.639755,448.917969 169.989014,452.714600 169.344666,454.078644 
	C166.761017,459.548096 161.417343,457.130310 156.266266,457.891083 
	C156.266266,454.919556 156.266266,452.346893 156.273895,449.331055 
z"/>
<path fill="#090909" opacity="1.000000" stroke="none" 
	d="
M286.210083,458.842834 
	C287.007660,461.414856 287.686035,463.591003 288.489380,466.168152 
	C284.383606,466.168152 280.822418,466.168152 276.592285,466.168152 
	C278.489868,459.771393 280.294922,453.686615 282.411346,446.552216 
	C283.839905,451.170319 284.965393,454.808655 286.210083,458.842834 
z"/>
<path fill="#080808" opacity="1.000000" stroke="none" 
	d="
M371.996887,462.030701 
	C372.421814,457.942078 372.317200,454.142426 373.480499,450.781677 
	C374.124115,448.922394 376.816254,446.797913 378.723694,446.655914 
	C380.274506,446.540466 383.375336,449.113678 383.471924,450.641144 
	C383.969086,458.501556 384.008759,466.428711 383.481598,474.283844 
	C383.377441,475.835999 380.031311,478.364380 378.283661,478.280762 
	C376.492065,478.195099 373.888000,475.739899 373.310089,473.819153 
	C372.232971,470.239471 372.366913,466.295410 371.996887,462.030701 
z"/>
</svg>