<svg version="1.1" id="Layer_1" xmlns="http://www.w3.org/2000/svg" xmlns:xlink="http://www.w3.org/1999/xlink" x="0px" y="0px"
	 width="100%" viewBox="0 0 512 512" enable-background="new 0 0 512 512" xml:space="preserve">
<path fill="#010000" opacity="1.000000" stroke="none" 
	d="
M513.000000,200.000000 
	C513.000000,304.641235 513.000000,408.782471 513.000000,512.961853 
	C342.400421,512.961853 171.800827,512.961853 1.100622,512.961853 
	C1.100622,342.442139 1.100622,171.884171 1.100622,1.163107 
	C171.666534,1.163107 342.333252,1.163107 513.000000,1.163107 
	C513.000000,67.199127 513.000000,133.349564 513.000000,200.000000 
M271.762268,100.622665 
	C294.502045,100.622665 317.241821,100.622665 340.330688,100.622665 
	C340.330688,172.476822 340.330688,243.714874 340.330688,315.254150 
	C358.406982,315.254150 376.128479,315.254150 394.372864,315.254150 
	C394.372864,243.621857 394.372864,172.252670 394.372864,100.570358 
	C413.536682,100.570358 432.196686,100.102791 450.815552,100.775223 
	C459.615692,101.093048 466.424347,100.116730 469.124390,90.547478 
	C469.253540,90.089790 469.675629,89.720230 469.932312,89.292244 
	C478.872894,74.386726 491.749146,63.422283 505.685883,53.503517 
	C507.020142,52.553940 508.130035,51.289108 509.344086,50.170635 
	C507.214966,49.034603 505.628815,49.039360 504.042694,49.033909 
	C463.231476,48.893642 422.420166,48.772427 381.609070,48.605751 
	C336.802277,48.422760 291.995789,48.157753 247.188919,48.007652 
	C224.372375,47.931221 201.555252,48.028412 178.076721,48.179264 
	C174.456482,48.059341 170.825851,47.702908 167.217819,47.861259 
	C153.099152,48.480927 138.853439,48.283592 124.902130,50.194538 
	C98.087044,53.867481 73.918335,64.289879 53.836994,82.852150 
	C31.295925,103.688087 19.268110,129.847626 16.576075,160.233734 
	C13.300913,197.201813 22.996840,230.334381 49.694386,256.625641 
	C82.566353,288.997406 122.190620,297.260956 166.379532,285.239105 
	C167.110107,285.040344 167.912567,285.105804 169.817673,284.962463 
	C138.696960,330.571930 108.111145,375.397491 76.857376,421.201965 
	C80.060120,421.201965 81.849281,421.201935 83.638443,421.201935 
	C105.298073,421.201904 126.963768,420.919281 148.613403,421.384308 
	C154.649750,421.513947 157.820404,419.322174 160.946869,414.597809 
	C185.489517,377.511749 210.502472,340.735168 234.864822,303.532104 
	C248.535660,282.655792 261.957214,261.551880 274.215057,239.830414 
	C290.613281,210.771973 294.650604,179.273727 288.987396,146.484589 
	C286.139923,129.998123 279.521027,115.003136 271.762268,100.622665 
M240.314133,352.028473 
	C234.740280,352.028473 229.166428,352.028473 223.632462,352.028473 
	C223.632462,368.054352 223.632462,383.430450 223.632462,399.380035 
	C231.744904,398.980927 239.566101,399.004639 247.273880,398.081482 
	C252.945908,397.402130 257.112549,393.905975 257.964569,387.852783 
	C258.804718,381.883820 257.504608,376.706970 250.244217,374.319672 
	C256.573395,371.348358 257.830719,366.510040 256.741211,361.052124 
	C255.638794,355.529816 251.288879,353.491302 246.181961,352.725830 
	C244.542282,352.480011 242.895889,352.278900 240.314133,352.028473 
M370.799774,366.626221 
	C369.059174,361.812134 367.318573,356.998077 365.535614,352.066895 
	C361.456085,352.066895 357.491943,352.066895 353.228088,352.066895 
	C347.785553,367.569946 342.336273,383.092255 336.807861,398.839905 
	C340.734039,398.839905 344.032135,398.839905 347.276428,398.839905 
	C348.662506,395.156830 349.028809,390.113129 351.559143,388.531586 
	C354.459076,386.718964 359.279175,387.971161 363.265320,387.907349 
	C364.751312,387.883575 366.237946,387.903534 367.910400,387.903534 
	C369.122284,391.662140 370.276154,395.240723 371.390137,398.695648 
	C375.032104,398.695648 378.394470,398.695648 382.038544,398.695648 
	C378.272827,388.008392 374.639435,377.696716 370.799774,366.626221 
M457.131042,399.622589 
	C463.132721,399.059174 467.625305,396.163574 469.608765,390.434204 
	C473.028320,380.556335 473.159149,370.507385 469.443726,360.677948 
	C467.005585,354.227692 461.728821,351.042725 455.059753,351.230072 
	C447.957855,351.429596 443.184113,354.845764 441.004700,361.769501 
	C438.348267,370.208557 438.283020,378.815857 440.551758,387.334503 
	C442.830261,395.889923 447.106354,399.074432 457.131042,399.622589 
M269.923065,399.014557 
	C278.169678,399.014557 286.416321,399.014557 294.502991,399.014557 
	C294.502991,395.903473 294.502991,393.496002 294.502991,390.633362 
	C288.775208,390.633362 283.367706,390.633362 278.073425,390.633362 
	C278.073425,386.425446 278.073425,382.692413 278.073425,378.567139 
	C283.328461,378.567139 288.246521,378.567139 293.316711,378.567139 
	C293.316711,375.753265 293.316711,373.348480 293.316711,370.339172 
	C288.025085,370.339172 282.988678,370.339172 278.021790,370.339172 
	C278.021790,366.647308 278.021790,363.568665 278.021790,360.021484 
	C283.706177,360.021484 289.113464,360.021484 294.553467,360.021484 
	C294.553467,357.134308 294.553467,354.737579 294.553467,352.201630 
	C285.534454,352.201630 276.791351,352.201630 267.727020,352.201630 
	C267.727020,367.356506 267.712646,382.309662 267.781067,397.262421 
	C267.783722,397.842926 268.580261,398.419800 269.923065,399.014557 
M312.884857,380.500183 
	C312.884857,386.590179 312.884857,392.680176 312.884857,398.687988 
	C316.515869,398.687988 319.577881,398.687988 323.007324,398.687988 
	C323.007324,385.799896 323.007324,373.227936 323.007324,360.212646 
	C327.296997,360.212646 331.210785,360.212646 335.199402,360.212646 
	C335.199402,357.222351 335.199402,354.695587 335.199402,352.348389 
	C323.251404,352.348389 311.686920,352.348389 300.297668,352.348389 
	C300.297668,355.129852 300.297668,357.563080 300.297668,360.517700 
	C304.623444,360.517700 308.679871,360.517700 312.884857,360.517700 
	C312.884857,367.197662 312.884857,373.349182 312.884857,380.500183 
M426.423706,387.468079 
	C426.423706,375.723907 426.423706,363.979767 426.423706,352.299072 
	C414.980316,349.961792 410.752136,359.880829 402.916870,363.912781 
	C404.889221,366.275970 406.346710,368.022247 407.964905,369.961121 
	C410.843201,367.701965 413.488739,365.625458 416.721466,363.088104 
	C416.721466,375.598480 416.721466,387.184448 416.721466,398.697937 
	C420.050690,398.697937 423.114838,398.697937 426.423706,398.697937 
	C426.423706,395.074646 426.423706,391.764526 426.423706,387.468079 
z"/>
<path fill="#E1001A" opacity="1.000000" stroke="none" 
	d="
M270.819244,100.842041 
	C279.521027,115.003136 286.139923,129.998123 288.987396,146.484589 
	C294.650604,179.273727 290.613281,210.771973 274.215057,239.830414 
	C261.957214,261.551880 248.535660,282.655792 234.864822,303.532104 
	C210.502472,340.735168 185.489517,377.511749 160.946869,414.597809 
	C157.820404,419.322174 154.649750,421.513947 148.613403,421.384308 
	C126.963768,420.919281 105.298073,421.201904 83.638443,421.201935 
	C81.849281,421.201935 80.060120,421.201965 76.857376,421.201965 
	C108.111145,375.397491 138.696960,330.571930 169.817673,284.962463 
	C167.912567,285.105804 167.110107,285.040344 166.379532,285.239105 
	C122.190620,297.260956 82.566353,288.997406 49.694386,256.625641 
	C22.996840,230.334381 13.300913,197.201813 16.576075,160.233734 
	C19.268110,129.847626 31.295925,103.688087 53.836994,82.852150 
	C73.918335,64.289879 98.087044,53.867481 124.902130,50.194538 
	C138.853439,48.283592 153.099152,48.480927 167.217819,47.861259 
	C170.825851,47.702908 174.456482,48.059341 178.580536,48.466599 
	C180.507889,49.126476 181.912094,49.616413 183.357758,49.854374 
	C219.003601,55.721741 249.302124,70.745834 270.819244,100.842041 
M168.747971,108.616539 
	C156.847977,105.859421 144.958496,106.053200 133.149857,109.034065 
	C88.457504,120.315811 67.685577,169.215775 91.062210,208.007034 
	C109.394051,238.426941 151.535675,249.954239 184.860016,233.117813 
	C209.475357,220.681427 222.956528,200.270401 222.424469,172.566162 
	C221.813171,140.736099 200.908737,116.508560 168.747971,108.616539 
z"/>
<path fill="#FDFDFD" opacity="1.000000" stroke="none" 
	d="
M271.290771,100.732353 
	C249.302124,70.745834 219.003601,55.721741 183.357758,49.854374 
	C181.912094,49.616413 180.507889,49.126476 178.911377,48.400528 
	C201.555252,48.028412 224.372375,47.931221 247.188919,48.007652 
	C291.995789,48.157753 336.802277,48.422760 381.609070,48.605751 
	C422.420166,48.772427 463.231476,48.893642 504.042694,49.033909 
	C505.628815,49.039360 507.214966,49.034603 509.344086,50.170635 
	C508.130035,51.289108 507.020142,52.553940 505.685883,53.503517 
	C491.749146,63.422283 478.872894,74.386726 469.932312,89.292244 
	C469.675629,89.720230 469.253540,90.089790 469.124390,90.547478 
	C466.424347,100.116730 459.615692,101.093048 450.815552,100.775223 
	C432.196686,100.102791 413.536682,100.570358 394.372864,100.570358 
	C394.372864,172.252670 394.372864,243.621857 394.372864,315.254150 
	C376.128479,315.254150 358.406982,315.254150 340.330688,315.254150 
	C340.330688,243.714874 340.330688,172.476822 340.330688,100.622665 
	C317.241821,100.622665 294.502045,100.622665 271.290771,100.732353 
z"/>
<path fill="#F7F7F7" opacity="1.000000" stroke="none" 
	d="
M240.783356,352.042908 
	C242.895889,352.278900 244.542282,352.480011 246.181961,352.725830 
	C251.288879,353.491302 255.638794,355.529816 256.741211,361.052124 
	C257.830719,366.510040 256.573395,371.348358 250.244217,374.319672 
	C257.504608,376.706970 258.804718,381.883820 257.964569,387.852783 
	C257.112549,393.905975 252.945908,397.402130 247.273880,398.081482 
	C239.566101,399.004639 231.744904,398.980927 223.632462,399.380035 
	C223.632462,383.430450 223.632462,368.054352 223.632462,352.028473 
	C229.166428,352.028473 234.740280,352.028473 240.783356,352.042908 
M239.263916,390.872040 
	C242.614151,390.695740 246.297943,390.655640 247.366653,386.699432 
	C247.850845,384.906921 247.558029,381.955658 246.378464,380.838226 
	C242.649414,377.305786 237.909851,378.700714 233.626465,378.728546 
	C233.626465,383.150085 233.626465,386.885895 233.626465,390.873352 
	C235.444183,390.873352 236.919632,390.873352 239.263916,390.872040 
M233.264404,366.324646 
	C233.370743,367.733429 233.477066,369.142181 233.610474,370.909668 
	C236.923309,370.672241 239.894119,370.987885 242.442139,370.095856 
	C244.220184,369.473389 246.695221,367.073151 246.561279,365.689331 
	C246.384491,363.862885 244.262711,361.420471 242.426956,360.750854 
	C239.799637,359.792480 236.674759,360.198151 233.264374,359.991119 
	C233.264374,362.205017 233.264374,363.821869 233.264404,366.324646 
z"/>
<path fill="#F8F8F8" opacity="1.000000" stroke="none" 
	d="
M370.902924,367.005615 
	C374.639435,377.696716 378.272827,388.008392 382.038544,398.695648 
	C378.394470,398.695648 375.032104,398.695648 371.390137,398.695648 
	C370.276154,395.240723 369.122284,391.662140 367.910400,387.903534 
	C366.237946,387.903534 364.751312,387.883575 363.265320,387.907349 
	C359.279175,387.971161 354.459076,386.718964 351.559143,388.531586 
	C349.028809,390.113129 348.662506,395.156830 347.276428,398.839905 
	C344.032135,398.839905 340.734039,398.839905 336.807861,398.839905 
	C342.336273,383.092255 347.785553,367.569946 353.228088,352.066895 
	C357.491943,352.066895 361.456085,352.066895 365.535614,352.066895 
	C367.318573,356.998077 369.059174,361.812134 370.902924,367.005615 
M362.711334,369.868042 
	C361.699005,366.734100 360.686707,363.600159 359.407349,359.639404 
	C357.343811,366.569946 355.508789,372.732880 353.612366,379.102081 
	C357.920319,379.102081 361.452332,379.102081 365.380310,379.102081 
	C364.483704,376.008942 363.707275,373.330505 362.711334,369.868042 
z"/>
<path fill="#F9F9F9" opacity="1.000000" stroke="none" 
	d="
M456.724670,399.655640 
	C447.106354,399.074432 442.830261,395.889923 440.551758,387.334503 
	C438.283020,378.815857 438.348267,370.208557 441.004700,361.769501 
	C443.184113,354.845764 447.957855,351.429596 455.059753,351.230072 
	C461.728821,351.042725 467.005585,354.227692 469.443726,360.677948 
	C473.159149,370.507385 473.028320,380.556335 469.608765,390.434204 
	C467.625305,396.163574 463.132721,399.059174 456.724670,399.655640 
M460.871063,386.949921 
	C460.910309,379.518738 461.335114,372.055695 460.725647,364.678101 
	C460.567505,362.763824 457.318207,359.995239 455.218414,359.725800 
	C453.720795,359.533630 450.418152,362.754120 450.262939,364.644043 
	C449.669678,371.866882 449.711090,379.190735 450.245026,386.423004 
	C450.378754,388.234192 453.077637,390.969574 454.883942,391.220764 
	C456.584045,391.457092 458.661896,388.976349 460.871063,386.949921 
z"/>
<path fill="#F7F7F7" opacity="1.000000" stroke="none" 
	d="
M269.464966,399.006470 
	C268.580261,398.419800 267.783722,397.842926 267.781067,397.262421 
	C267.712646,382.309662 267.727020,367.356506 267.727020,352.201630 
	C276.791351,352.201630 285.534454,352.201630 294.553467,352.201630 
	C294.553467,354.737579 294.553467,357.134308 294.553467,360.021484 
	C289.113464,360.021484 283.706177,360.021484 278.021790,360.021484 
	C278.021790,363.568665 278.021790,366.647308 278.021790,370.339172 
	C282.988678,370.339172 288.025085,370.339172 293.316711,370.339172 
	C293.316711,373.348480 293.316711,375.753265 293.316711,378.567139 
	C288.246521,378.567139 283.328461,378.567139 278.073425,378.567139 
	C278.073425,382.692413 278.073425,386.425446 278.073425,390.633362 
	C283.367706,390.633362 288.775208,390.633362 294.502991,390.633362 
	C294.502991,393.496002 294.502991,395.903473 294.502991,399.014557 
	C286.416321,399.014557 278.169678,399.014557 269.464966,399.006470 
z"/>
<path fill="#FAFAFA" opacity="1.000000" stroke="none" 
	d="
M312.884857,380.000427 
	C312.884857,373.349182 312.884857,367.197662 312.884857,360.517700 
	C308.679871,360.517700 304.623444,360.517700 300.297668,360.517700 
	C300.297668,357.563080 300.297668,355.129852 300.297668,352.348389 
	C311.686920,352.348389 323.251404,352.348389 335.199402,352.348389 
	C335.199402,354.695587 335.199402,357.222351 335.199402,360.212646 
	C331.210785,360.212646 327.296997,360.212646 323.007324,360.212646 
	C323.007324,373.227936 323.007324,385.799896 323.007324,398.687988 
	C319.577881,398.687988 316.515869,398.687988 312.884857,398.687988 
	C312.884857,392.680176 312.884857,386.590179 312.884857,380.000427 
z"/>
<path fill="#F6F6F6" opacity="1.000000" stroke="none" 
	d="
M426.423706,387.961243 
	C426.423706,391.764526 426.423706,395.074646 426.423706,398.697937 
	C423.114838,398.697937 420.050690,398.697937 416.721466,398.697937 
	C416.721466,387.184448 416.721466,375.598480 416.721466,363.088104 
	C413.488739,365.625458 410.843201,367.701965 407.964905,369.961121 
	C406.346710,368.022247 404.889221,366.275970 402.916870,363.912781 
	C410.752136,359.880829 414.980316,349.961792 426.423706,352.299072 
	C426.423706,363.979767 426.423706,375.723907 426.423706,387.961243 
z"/>
<path fill="#010000" opacity="1.000000" stroke="none" 
	d="
M169.153946,108.715836 
	C200.908737,116.508560 221.813171,140.736099 222.424469,172.566162 
	C222.956528,200.270401 209.475357,220.681427 184.860016,233.117813 
	C151.535675,249.954239 109.394051,238.426941 91.062210,208.007034 
	C67.685577,169.215775 88.457504,120.315811 133.149857,109.034065 
	C144.958496,106.053200 156.847977,105.859421 169.153946,108.715836 
z"/>
<path fill="#0E0E0E" opacity="1.000000" stroke="none" 
	d="
M238.829498,390.872681 
	C236.919632,390.873352 235.444183,390.873352 233.626465,390.873352 
	C233.626465,386.885895 233.626465,383.150085 233.626465,378.728546 
	C237.909851,378.700714 242.649414,377.305786 246.378464,380.838226 
	C247.558029,381.955658 247.850845,384.906921 247.366653,386.699432 
	C246.297943,390.655640 242.614151,390.695740 238.829498,390.872681 
z"/>
<path fill="#141414" opacity="1.000000" stroke="none" 
	d="
M233.264389,365.881653 
	C233.264374,363.821869 233.264374,362.205017 233.264374,359.991119 
	C236.674759,360.198151 239.799637,359.792480 242.426956,360.750854 
	C244.262711,361.420471 246.384491,363.862885 246.561279,365.689331 
	C246.695221,367.073151 244.220184,369.473389 242.442139,370.095856 
	C239.894119,370.987885 236.923309,370.672241 233.610474,370.909668 
	C233.477066,369.142181 233.370743,367.733429 233.264389,365.881653 
z"/>
<path fill="#090909" opacity="1.000000" stroke="none" 
	d="
M362.821106,370.260071 
	C363.707275,373.330505 364.483704,376.008942 365.380310,379.102081 
	C361.452332,379.102081 357.920319,379.102081 353.612366,379.102081 
	C355.508789,372.732880 357.343811,366.569946 359.407349,359.639404 
	C360.686707,363.600159 361.699005,366.734100 362.821106,370.260071 
z"/>
<path fill="#080808" opacity="1.000000" stroke="none" 
	d="
M460.722321,387.320435 
	C458.661896,388.976349 456.584045,391.457092 454.883942,391.220764 
	C453.077637,390.969574 450.378754,388.234192 450.245026,386.423004 
	C449.711090,379.190735 449.669678,371.866882 450.262939,364.644043 
	C450.418152,362.754120 453.720795,359.533630 455.218414,359.725800 
	C457.318207,359.995239 460.567505,362.763824 460.725647,364.678101 
	C461.335114,372.055695 460.910309,379.518738 460.722321,387.320435 
z"/>
</svg>